<svg width="81" height="9" viewBox="0 0 81 9" fill="none" xmlns="http://www.w3.org/2000/svg">
<path fill-rule="evenodd" clip-rule="evenodd" d="M27.3676 0.761202H28.3958V8.00447H27.3676V0.761202ZM5.19844 2.04756C4.56921 1.3831 3.67519 1.03584 2.76243 1.10134H0.268921V8.00458H2.76243C4.8187 8.00458 6.01066 6.73687 6.01066 4.53146C6.12575 3.62362 5.82766 2.71202 5.19844 2.04756ZM2.64267 7.02832H1.34112V2.07689H2.64267C3.29151 2.04088 3.92249 2.29672 4.36303 2.77443C4.80358 3.25214 5.00758 3.90174 4.91925 4.54554C5.01451 5.19203 4.8134 5.84703 4.37176 6.32867C3.93013 6.81031 3.29498 7.06732 2.64267 7.02832ZM7.22183 5.39743C7.1325 4.46365 7.58026 3.55995 8.37731 3.06535C9.17436 2.57074 10.1829 2.57074 10.9799 3.06535C11.777 3.55995 12.2247 4.46365 12.1354 5.39743C12.2264 6.33221 11.7791 7.23766 10.9813 7.73333C10.1836 8.229 9.17366 8.229 8.3759 7.73333C7.57815 7.23766 7.1308 6.33221 7.22183 5.39743ZM9.68031 3.6078C10.5706 3.6078 11.0779 4.26818 11.0779 5.39742H11.0779C11.0779 6.5312 10.5706 7.19101 9.68031 7.19102C8.78666 7.19102 8.28389 6.53573 8.28389 5.39744C8.28389 4.26818 8.78662 3.6078 9.68031 3.6078ZM18.6669 8.00447H17.6003L16.5236 4.1676H16.4423L15.3701 8.00447H14.3137L12.8777 2.79488H13.9205L14.8538 6.7701H14.9306L16.0017 2.79488H16.988L18.0591 6.7701H18.1404L19.0691 2.79488H20.0972L18.6669 8.00447ZM22.2947 2.79488H21.305L21.305 8.00448H22.3331V4.95679C22.2963 4.61009 22.4126 4.26457 22.6517 4.01082C22.8908 3.75706 23.2288 3.62038 23.5771 3.6366C24.3375 3.6366 24.7013 4.05295 24.7013 4.89014V8.00442H25.7294V4.63196C25.8048 4.12259 25.6444 3.60658 25.2936 3.22964C24.9428 2.8527 24.4397 2.65572 23.9262 2.69432C23.2631 2.64042 22.6387 3.01315 22.3716 3.62247H22.2947V2.79488ZM30.9806 3.06526C30.1835 3.55988 29.7357 4.4636 29.825 5.39744C29.734 6.33225 30.1815 7.23768 30.9793 7.73333C31.7771 8.22898 32.787 8.22898 33.5848 7.73333C34.3826 7.23768 34.83 6.33225 34.7391 5.39744C34.8284 4.4636 34.3805 3.55988 33.5834 3.06526C32.7863 2.57065 31.7777 2.57065 30.9806 3.06526ZM33.681 5.39742C33.681 4.26818 33.1737 3.6078 32.2835 3.6078C31.3898 3.6078 30.887 4.26818 30.887 5.39744C30.887 6.53573 31.3898 7.19102 32.2835 7.19102C33.1738 7.19101 33.681 6.5312 33.681 5.39742ZM37.7591 4.976C36.5197 5.05283 35.8215 5.59344 35.8215 6.5312C35.8232 6.97583 36.013 7.39898 36.3438 7.69604C36.6747 7.99309 37.1158 8.13632 37.558 8.09032C38.1889 8.11949 38.7867 7.80701 39.1228 7.27236H39.2042V8.00448H40.1939V4.44499C40.1939 3.34454 39.4572 2.69434 38.1512 2.69434C36.9694 2.69434 36.1277 3.26828 36.0226 4.1631H37.018C37.1321 3.79478 37.5298 3.58407 38.1037 3.58407C38.8065 3.58407 39.1703 3.89476 39.1703 4.44499V4.89465L37.7591 4.976ZM39.1703 6.08605V5.65051L37.8981 5.73185C37.1807 5.77987 36.8553 6.02391 36.8553 6.48318C36.8553 6.95205 37.262 7.2249 37.8213 7.2249C38.1524 7.25842 38.4829 7.15613 38.7372 6.94145C38.9915 6.72677 39.1478 6.41808 39.1703 6.08605ZM43.7076 2.70846C42.3914 2.70846 41.5452 3.75129 41.5452 5.39743C41.5452 7.04753 42.3824 8.09038 43.7076 8.09032C44.3795 8.11509 45.0097 7.76498 45.3436 7.18139H45.425V8.00447H46.4102V0.761202H45.382V3.62244H45.3052C44.9947 3.03397 44.3723 2.67784 43.7076 2.70846ZM42.6072 5.39743C42.6072 6.5024 43.1281 7.1673 43.9992 7.1673C44.8657 7.1673 45.4013 6.49281 45.4013 5.40196C45.4013 4.3162 44.8601 3.63209 43.9992 3.63209C43.1337 3.63209 42.6072 4.3015 42.6072 5.39743H42.6072ZM51.8194 3.06535C51.0224 3.55995 50.5746 4.46365 50.6639 5.39743C50.5729 6.33221 51.0202 7.23766 51.818 7.73333C52.6158 8.229 53.6257 8.229 54.4234 7.73333C55.2212 7.23766 55.6685 6.33221 55.5775 5.39743C55.6668 4.46365 55.2191 3.55995 54.422 3.06535C53.625 2.57074 52.6164 2.57074 51.8194 3.06535ZM54.52 5.39742C54.52 4.26818 54.0127 3.6078 53.1224 3.6078C52.2287 3.6078 51.726 4.26818 51.726 5.39744C51.726 6.53573 52.2288 7.19102 53.1224 7.19102C54.0127 7.19101 54.52 6.5312 54.52 5.39742ZM57.9467 2.79488H56.957V8.00448H57.9851V4.95679C57.9483 4.61009 58.0646 4.26457 58.3037 4.01082C58.5428 3.75706 58.8808 3.62038 59.2291 3.6366C59.9894 3.6366 60.3532 4.05295 60.3532 4.89014V8.00442H61.3814V4.63196C61.4567 4.12259 61.2964 3.60658 60.9456 3.22964C60.5948 2.8527 60.0917 2.65572 59.5782 2.69432C58.9151 2.64042 58.2907 3.01315 58.0236 3.62247H57.9467V2.79488ZM67.1909 1.49786V2.81862H68.3196V3.68463H67.1909V6.36343C67.1909 6.90913 67.4157 7.14809 67.9275 7.14809C68.0586 7.14767 68.1895 7.13974 68.3196 7.12436V7.98075C68.135 8.01379 67.9479 8.03136 67.7603 8.03329C66.617 8.03329 66.1616 7.63107 66.1616 6.62667V3.68458H65.3346V2.81857H66.1616V1.49786H67.1909ZM70.7431 0.761202H69.724L69.724 8.00445H70.7521V4.96186C70.7204 4.60438 70.848 4.25109 71.1009 3.99645C71.3538 3.7418 71.7062 3.61176 72.0639 3.6411C72.7903 3.6411 73.1779 4.06253 73.1779 4.89464V8.00448H74.207V4.641C74.2751 4.13425 74.1137 3.62353 73.7667 3.24796C73.4198 2.87238 72.9234 2.67107 72.4129 2.69885C71.7397 2.64421 71.1044 3.01742 70.8244 3.63208H70.7431V0.761202ZM80.2019 6.59786C79.9136 7.58053 78.9626 8.21545 77.9445 8.10503C77.2498 8.12337 76.5822 7.83543 76.1188 7.31762C75.6554 6.7998 75.443 6.10446 75.538 5.41607C75.4455 4.72578 75.6571 4.02932 76.118 3.50713C76.5788 2.98494 77.2436 2.6884 77.94 2.69434C79.3895 2.69434 80.264 3.68467 80.264 5.32058V5.67933H76.5853V5.73695C76.5528 6.12353 76.6848 6.5059 76.9489 6.79004C77.2131 7.07417 77.5848 7.2337 77.9728 7.22939C78.4758 7.28978 78.9654 7.04027 79.2122 6.59782L80.2019 6.59786ZM79.2167 4.91894H76.5853C76.5807 4.55971 76.7213 4.21381 76.9753 3.95972C77.2293 3.70562 77.5751 3.56487 77.9343 3.56938C78.2888 3.56125 78.6301 3.70318 78.8744 3.96019C79.1186 4.2172 79.2429 4.56538 79.2167 4.91894Z" fill="white"/>
</svg>
