<svg width="85" height="96" viewBox="0 0 85 96" fill="none" xmlns="http://www.w3.org/2000/svg">
<path fill-rule="evenodd" clip-rule="evenodd" d="M19.3221 12.7773C23.4437 5.94976 30.7782 0 42.3265 0C53.8747 0 61.2092 5.94975 65.3308 12.7773C69.2865 19.3299 70.5142 26.9203 70.5142 31.9592H78.3866C82.3871 31.9592 85.3624 35.3906 84.505 39.0155L72.1342 91.3124C71.5036 93.9783 68.9579 95.8777 66.0158 95.8777H18.6372C15.6951 95.8777 13.1495 93.9783 12.5189 91.3124L0.148064 39.0155C-0.709392 35.3906 2.26591 31.9592 6.26643 31.9592H14.1388C14.1388 26.9203 15.3665 19.3299 19.3221 12.7773ZM54.4002 18.4556C57.0217 22.7982 57.9863 28.282 57.9863 31.9592H26.6667C26.6667 28.282 27.6313 22.7982 30.2528 18.4556C32.7083 14.3879 36.3357 11.6215 42.3265 11.6215C48.3173 11.6215 51.9446 14.388 54.4002 18.4556ZM42.3265 68.4368C49.2079 68.4368 55.3628 65.5511 59.4617 61.0131L67.3823 68.3607C61.2429 74.7658 52.2926 78.8009 42.3265 78.8009C32.3603 78.8009 23.4101 74.7658 17.2707 68.3607L25.1913 61.0131C29.2902 65.5511 35.4451 68.4368 42.3265 68.4368Z" fill="#26A67C"/>
<path fill-rule="evenodd" clip-rule="evenodd" d="M19.3221 12.7773C23.4437 5.94976 30.7782 0 42.3265 0C53.8747 0 61.2092 5.94975 65.3308 12.7773C69.2865 19.3299 70.5142 26.9203 70.5142 31.9592H78.3866C82.3871 31.9592 85.3624 35.3906 84.505 39.0155L72.1342 91.3124C71.5036 93.9783 68.9579 95.8777 66.0158 95.8777H18.6372C15.6951 95.8777 13.1495 93.9783 12.5189 91.3124L0.148064 39.0155C-0.709392 35.3906 2.26591 31.9592 6.26643 31.9592H14.1388C14.1388 26.9203 15.3665 19.3299 19.3221 12.7773ZM54.4002 18.4556C57.0217 22.7982 57.9863 28.282 57.9863 31.9592H26.6667C26.6667 28.282 27.6313 22.7982 30.2528 18.4556C32.7083 14.3879 36.3357 11.6215 42.3265 11.6215C48.3173 11.6215 51.9446 14.388 54.4002 18.4556ZM42.3265 68.4368C49.2079 68.4368 55.3628 65.5511 59.4617 61.0131L67.3823 68.3607C61.2429 74.7658 52.2926 78.8009 42.3265 78.8009C32.3603 78.8009 23.4101 74.7658 17.2707 68.3607L25.1913 61.0131C29.2902 65.5511 35.4451 68.4368 42.3265 68.4368Z" fill="#FAB131"/>
</svg>
